<svg viewBox="0 0 12 12" fill="none" xmlns="http://www.w3.org/2000/svg">
    <path d="M11.25 9.0625V4.25H0.75V9.0625C0.75 9.64266 0.980468 10.1991 1.3907 10.6093C1.80094 11.0195 2.35734 11.25 2.9375 11.25H9.0625C9.64266 11.25 10.1991 11.0195 10.6093 10.6093C11.0195 10.1991 11.25 9.64266 11.25 9.0625ZM4.24738 6.217C4.24738 6.3907 4.17837 6.55729 4.05555 6.68011C3.93272 6.80294 3.76614 6.87194 3.59244 6.87194C3.41874 6.87194 3.25215 6.80294 3.12933 6.68011C3.0065 6.55729 2.9375 6.3907 2.9375 6.217C2.9375 6.0433 3.0065 5.87671 3.12933 5.75389C3.25215 5.63106 3.41874 5.56206 3.59244 5.56206C3.76614 5.56206 3.93272 5.63106 4.05555 5.75389C4.17837 5.87671 4.24738 6.0433 4.24738 6.217ZM4.24738 8.4045C4.24738 8.5782 4.17837 8.74479 4.05555 8.86761C3.93272 8.99044 3.76614 9.05944 3.59244 9.05944C3.41874 9.05944 3.25215 8.99044 3.12933 8.86761C3.0065 8.74479 2.9375 8.5782 2.9375 8.4045C2.9375 8.2308 3.0065 8.06421 3.12933 7.94139C3.25215 7.81856 3.41874 7.74956 3.59244 7.74956C3.76614 7.74956 3.93272 7.81856 4.05555 7.94139C4.17837 8.06421 4.24738 8.2308 4.24738 8.4045ZM6.65537 6.217C6.65537 6.3907 6.58637 6.55729 6.46355 6.68011C6.34072 6.80294 6.17414 6.87194 6.00044 6.87194C5.82674 6.87194 5.66015 6.80294 5.53733 6.68011C5.4145 6.55729 5.3455 6.3907 5.3455 6.217C5.3455 6.0433 5.4145 5.87671 5.53733 5.75389C5.66015 5.63106 5.82674 5.56206 6.00044 5.56206C6.17414 5.56206 6.34072 5.63106 6.46355 5.75389C6.58637 5.87671 6.65537 6.0433 6.65537 6.217ZM6.65537 8.4045C6.65537 8.5782 6.58637 8.74479 6.46355 8.86761C6.34072 8.99044 6.17414 9.05944 6.00044 9.05944C5.82674 9.05944 5.66015 8.99044 5.53733 8.86761C5.4145 8.74479 5.3455 8.5782 5.3455 8.4045C5.3455 8.2308 5.4145 8.06421 5.53733 7.94139C5.66015 7.81856 5.82674 7.74956 6.00044 7.74956C6.17414 7.74956 6.34072 7.81856 6.46355 7.94139C6.58637 8.06421 6.65537 8.2308 6.65537 8.4045ZM9.05987 6.217C9.05987 6.3907 8.99087 6.55729 8.86805 6.68011C8.74522 6.80294 8.57864 6.87194 8.40494 6.87194C8.23124 6.87194 8.06465 6.80294 7.94183 6.68011C7.819 6.55729 7.75 6.3907 7.75 6.217C7.75 6.0433 7.819 5.87671 7.94183 5.75389C8.06465 5.63106 8.23124 5.56206 8.40494 5.56206C8.57864 5.56206 8.74522 5.63106 8.86805 5.75389C8.99087 5.87671 9.05987 6.0433 9.05987 6.217ZM11.25 2.9375C11.25 2.35734 11.0195 1.80094 10.6093 1.3907C10.1991 0.980468 9.64266 0.75 9.0625 0.75H2.9375C2.35734 0.75 1.80094 0.980468 1.3907 1.3907C0.980468 1.80094 0.75 2.35734 0.75 2.9375V3.375H11.25V2.9375Z"
          fill="currentColor"/>
    <path d="M11.25 9.0625V4.25H0.75V9.0625C0.75 9.64266 0.980468 10.1991 1.3907 10.6093C1.80094 11.0195 2.35734 11.25 2.9375 11.25H9.0625C9.64266 11.25 10.1991 11.0195 10.6093 10.6093C11.0195 10.1991 11.25 9.64266 11.25 9.0625ZM4.24738 6.217C4.24738 6.3907 4.17837 6.55729 4.05555 6.68011C3.93272 6.80294 3.76614 6.87194 3.59244 6.87194C3.41874 6.87194 3.25215 6.80294 3.12933 6.68011C3.0065 6.55729 2.9375 6.3907 2.9375 6.217C2.9375 6.0433 3.0065 5.87671 3.12933 5.75389C3.25215 5.63106 3.41874 5.56206 3.59244 5.56206C3.76614 5.56206 3.93272 5.63106 4.05555 5.75389C4.17837 5.87671 4.24738 6.0433 4.24738 6.217ZM4.24738 8.4045C4.24738 8.5782 4.17837 8.74479 4.05555 8.86761C3.93272 8.99044 3.76614 9.05944 3.59244 9.05944C3.41874 9.05944 3.25215 8.99044 3.12933 8.86761C3.0065 8.74479 2.9375 8.5782 2.9375 8.4045C2.9375 8.2308 3.0065 8.06421 3.12933 7.94139C3.25215 7.81856 3.41874 7.74956 3.59244 7.74956C3.76614 7.74956 3.93272 7.81856 4.05555 7.94139C4.17837 8.06421 4.24738 8.2308 4.24738 8.4045ZM6.65537 6.217C6.65537 6.3907 6.58637 6.55729 6.46355 6.68011C6.34072 6.80294 6.17414 6.87194 6.00044 6.87194C5.82674 6.87194 5.66015 6.80294 5.53733 6.68011C5.4145 6.55729 5.3455 6.3907 5.3455 6.217C5.3455 6.0433 5.4145 5.87671 5.53733 5.75389C5.66015 5.63106 5.82674 5.56206 6.00044 5.56206C6.17414 5.56206 6.34072 5.63106 6.46355 5.75389C6.58637 5.87671 6.65537 6.0433 6.65537 6.217ZM6.65537 8.4045C6.65537 8.5782 6.58637 8.74479 6.46355 8.86761C6.34072 8.99044 6.17414 9.05944 6.00044 9.05944C5.82674 9.05944 5.66015 8.99044 5.53733 8.86761C5.4145 8.74479 5.3455 8.5782 5.3455 8.4045C5.3455 8.2308 5.4145 8.06421 5.53733 7.94139C5.66015 7.81856 5.82674 7.74956 6.00044 7.74956C6.17414 7.74956 6.34072 7.81856 6.46355 7.94139C6.58637 8.06421 6.65537 8.2308 6.65537 8.4045ZM9.05987 6.217C9.05987 6.3907 8.99087 6.55729 8.86805 6.68011C8.74522 6.80294 8.57864 6.87194 8.40494 6.87194C8.23124 6.87194 8.06465 6.80294 7.94183 6.68011C7.819 6.55729 7.75 6.3907 7.75 6.217C7.75 6.0433 7.819 5.87671 7.94183 5.75389C8.06465 5.63106 8.23124 5.56206 8.40494 5.56206C8.57864 5.56206 8.74522 5.63106 8.86805 5.75389C8.99087 5.87671 9.05987 6.0433 9.05987 6.217ZM11.25 2.9375C11.25 2.35734 11.0195 1.80094 10.6093 1.3907C10.1991 0.980468 9.64266 0.75 9.0625 0.75H2.9375C2.35734 0.75 1.80094 0.980468 1.3907 1.3907C0.980468 1.80094 0.75 2.35734 0.75 2.9375V3.375H11.25V2.9375Z"
          fill="black" fill-opacity="0.2"/>
</svg>
