<svg viewBox="0 0 12 9" fill="none" xmlns="http://www.w3.org/2000/svg">
    <path d="M4.0027 7.27859L1.68937 4.96525C1.56472 4.8406 1.39565 4.77057 1.21937 4.77057C1.04308 4.77057 0.87402 4.8406 0.749368 4.96525C0.624716 5.0899 0.554688 5.25897 0.554688 5.43525C0.554688 5.52254 0.57188 5.60897 0.605283 5.68961C0.638687 5.77026 0.687647 5.84353 0.749368 5.90525L3.53604 8.69192C3.79604 8.95192 4.21603 8.95192 4.47603 8.69192L11.5294 1.63859C11.654 1.51393 11.724 1.34487 11.724 1.16859C11.724 0.992303 11.654 0.823239 11.5294 0.698587C11.4047 0.573935 11.2357 0.503906 11.0594 0.503906C10.8831 0.503906 10.714 0.573935 10.5894 0.698587L4.0027 7.27859Z"
          fill="currentColor"/>
</svg>
